<svg width="393" height="1172" viewBox="0 0 393 1172" fill="none" xmlns="http://www.w3.org/2000/svg">
<path d="M15.8118 1177.78L18.1656 1171.19L24.758 1173.54L25.1279 1172.51L18.5355 1170.15L20.8893 1163.56L19.9475 1163.22L17.5937 1169.82L11.0013 1167.46L10.6314 1168.5L17.2238 1170.85L14.8701 1177.45L15.8118 1177.78Z" fill="#36845E" fill-opacity="0.1"/>
<path d="M173.89 1181.13L176.244 1174.54L182.836 1176.89L183.206 1175.86L176.614 1173.5L178.968 1166.91L178.026 1166.57L175.672 1173.17L169.08 1170.81L168.71 1171.85L175.302 1174.2L172.949 1180.79L173.89 1181.13Z" fill="#36845E" fill-opacity="0.1"/>
<path d="M126.802 1164.32L129.155 1157.73L135.748 1160.08L136.118 1159.04L129.525 1156.69L131.879 1150.1L130.937 1149.76L128.584 1156.35L121.991 1154L121.621 1155.04L128.214 1157.39L125.86 1163.98L126.802 1164.32Z" fill="#36845E" fill-opacity="0.1"/>
<path d="M79.7131 1147.51L82.0668 1140.91L88.6592 1143.27L89.0292 1142.23L82.4368 1139.88L84.7905 1133.28L83.8488 1132.95L81.495 1139.54L74.9026 1137.19L74.5327 1138.22L81.1251 1140.58L78.7713 1147.17L79.7131 1147.51Z" fill="#36845E" fill-opacity="0.1"/>
<path d="M32.6246 1130.69L34.9783 1124.1L41.5707 1126.45L41.9407 1125.42L35.3483 1123.06L37.702 1116.47L36.7603 1116.14L34.4065 1122.73L27.8141 1120.37L27.4442 1121.41L34.0366 1123.76L31.6828 1130.36L32.6246 1130.69Z" fill="#36845E" fill-opacity="0.1"/>
<path d="M331.969 1184.48L334.322 1177.89L340.915 1180.24L341.285 1179.21L334.692 1176.85L337.046 1170.26L336.104 1169.92L333.751 1176.52L327.158 1174.16L326.788 1175.2L333.381 1177.55L331.027 1184.14L331.969 1184.48Z" fill="#36845E" fill-opacity="0.1"/>
<path d="M284.88 1167.67L287.234 1161.08L293.826 1163.43L294.196 1162.39L287.604 1160.04L289.958 1153.45L289.016 1153.11L286.662 1159.7L280.07 1157.35L279.7 1158.39L286.292 1160.74L283.938 1167.33L284.88 1167.67Z" fill="#36845E" fill-opacity="0.1"/>
<path d="M237.792 1150.86L240.145 1144.26L246.738 1146.62L247.108 1145.58L240.515 1143.23L242.869 1136.63L241.927 1136.3L239.573 1142.89L232.981 1140.54L232.611 1141.57L239.204 1143.93L236.85 1150.52L237.792 1150.86Z" fill="#36845E" fill-opacity="0.1"/>
<path d="M190.703 1134.04L193.057 1127.45L199.649 1129.8L200.019 1128.77L193.427 1126.41L195.78 1119.82L194.839 1119.49L192.485 1126.08L185.892 1123.72L185.523 1124.76L192.115 1127.11L189.761 1133.71L190.703 1134.04Z" fill="#36845E" fill-opacity="0.1"/>
<path d="M143.614 1117.23L145.968 1110.64L152.561 1112.99L152.931 1111.96L146.338 1109.6L148.692 1103.01L147.75 1102.67L145.396 1109.27L138.804 1106.91L138.434 1107.95L145.026 1110.3L142.673 1116.89L143.614 1117.23Z" fill="#36845E" fill-opacity="0.1"/>
<path d="M96.5258 1100.42L98.8796 1093.82L105.472 1096.18L105.842 1095.14L99.2495 1092.79L101.603 1086.2L100.662 1085.86L98.3077 1092.45L91.7153 1090.1L91.3454 1091.13L97.9378 1093.49L95.584 1100.08L96.5258 1100.42Z" fill="#36845E" fill-opacity="0.1"/>
<path d="M49.4372 1083.6L51.791 1077.01L58.3834 1079.37L58.7533 1078.33L52.1609 1075.98L54.5147 1069.38L53.5729 1069.05L51.2191 1075.64L44.6267 1073.29L44.2568 1074.32L50.8492 1076.68L48.4954 1083.27L49.4372 1083.6Z" fill="#36845E" fill-opacity="0.1"/>
<path d="M2.34869 1066.79L4.70247 1060.2L11.2949 1062.55L11.6648 1061.52L5.07238 1059.16L7.42615 1052.57L6.48438 1052.23L4.13061 1058.83L-2.46179 1056.47L-2.8317 1057.51L3.7607 1059.86L1.40692 1066.46L2.34869 1066.79Z" fill="#36845E" fill-opacity="0.1"/>
<path d="M348.781 1137.39L351.135 1130.8L357.728 1133.15L358.097 1132.12L351.505 1129.76L353.859 1123.17L352.917 1122.83L350.563 1129.43L343.971 1127.07L343.601 1128.11L350.193 1130.46L347.84 1137.06L348.781 1137.39Z" fill="#36845E" fill-opacity="0.1"/>
<path d="M301.693 1120.58L304.047 1113.99L310.639 1116.34L311.009 1115.3L304.416 1112.95L306.77 1106.36L305.828 1106.02L303.475 1112.61L296.882 1110.26L296.512 1111.3L303.105 1113.65L300.751 1120.24L301.693 1120.58Z" fill="#36845E" fill-opacity="0.1"/>
<path d="M254.604 1103.77L256.958 1097.17L263.55 1099.53L263.92 1098.49L257.328 1096.14L259.682 1089.55L258.74 1089.21L256.386 1095.8L249.794 1093.45L249.424 1094.48L256.016 1096.84L253.662 1103.43L254.604 1103.77Z" fill="#36845E" fill-opacity="0.1"/>
<path d="M207.516 1086.95L209.869 1080.36L216.462 1082.72L216.832 1081.68L210.239 1079.33L212.593 1072.73L211.651 1072.4L209.298 1078.99L202.705 1076.64L202.335 1077.67L208.928 1080.03L206.574 1086.62L207.516 1086.95Z" fill="#36845E" fill-opacity="0.1"/>
<path d="M160.427 1070.14L162.781 1063.55L169.373 1065.9L169.743 1064.87L163.151 1062.51L165.505 1055.92L164.563 1055.58L162.209 1062.18L155.617 1059.82L155.247 1060.86L161.839 1063.21L159.485 1069.8L160.427 1070.14Z" fill="#36845E" fill-opacity="0.1"/>
<path d="M113.338 1053.33L115.692 1046.74L122.285 1049.09L122.655 1048.05L116.062 1045.7L118.416 1039.11L117.474 1038.77L115.12 1045.36L108.528 1043.01L108.158 1044.05L114.75 1046.4L112.397 1052.99L113.338 1053.33Z" fill="#36845E" fill-opacity="0.1"/>
<path d="M66.2499 1036.52L68.6037 1029.92L75.1961 1032.28L75.566 1031.24L68.9736 1028.89L71.3274 1022.3L70.3856 1021.96L68.0319 1028.55L61.4395 1026.2L61.0695 1027.23L67.6619 1029.59L65.3082 1036.18L66.2499 1036.52Z" fill="#36845E" fill-opacity="0.1"/>
<path d="M19.1613 1019.7L21.5151 1013.11L28.1075 1015.46L28.4774 1014.43L21.885 1012.07L24.2388 1005.48L23.297 1005.15L20.9432 1011.74L14.3508 1009.38L13.9809 1010.42L20.5733 1012.77L18.2195 1019.37L19.1613 1019.7Z" fill="#36845E" fill-opacity="0.1"/>
<path d="M365.594 1090.3L367.948 1083.71L374.54 1086.06L374.91 1085.03L368.318 1082.67L370.672 1076.08L369.73 1075.75L367.376 1082.34L360.784 1079.98L360.414 1081.02L367.006 1083.37L364.652 1089.97L365.594 1090.3Z" fill="#36845E" fill-opacity="0.1"/>
<path d="M318.505 1073.49L320.859 1066.9L327.452 1069.25L327.822 1068.22L321.229 1065.86L323.583 1059.27L322.641 1058.93L320.287 1065.53L313.695 1063.17L313.325 1064.21L319.917 1066.56L317.564 1073.15L318.505 1073.49Z" fill="#36845E" fill-opacity="0.1"/>
<path d="M271.417 1056.68L273.771 1050.09L280.363 1052.44L280.733 1051.4L274.141 1049.05L276.494 1042.46L275.553 1042.12L273.199 1048.71L266.606 1046.36L266.236 1047.4L272.829 1049.75L270.475 1056.34L271.417 1056.68Z" fill="#36845E" fill-opacity="0.1"/>
<path d="M224.328 1039.87L226.682 1033.27L233.274 1035.63L233.644 1034.59L227.052 1032.24L229.406 1025.64L228.464 1025.31L226.11 1031.9L219.518 1029.55L219.148 1030.58L225.74 1032.94L223.387 1039.53L224.328 1039.87Z" fill="#36845E" fill-opacity="0.1"/>
<path d="M177.24 1023.05L179.594 1016.46L186.186 1018.81L186.556 1017.78L179.963 1015.42L182.317 1008.83L181.375 1008.5L179.022 1015.09L172.429 1012.73L172.059 1013.77L178.652 1016.12L176.298 1022.72L177.24 1023.05Z" fill="#36845E" fill-opacity="0.1"/>
<path d="M130.151 1006.24L132.505 999.648L139.097 1002L139.467 1000.97L132.875 998.612L135.229 992.019L134.287 991.683L131.933 998.275L125.341 995.922L124.971 996.958L131.563 999.311L129.209 1005.9L130.151 1006.24Z" fill="#36845E" fill-opacity="0.1"/>
<path d="M83.0626 989.427L85.4163 982.835L92.0087 985.189L92.3786 984.153L85.7862 981.799L88.14 975.206L87.1983 974.87L84.8445 981.463L78.2521 979.109L77.8822 980.145L84.4746 982.499L82.1208 989.091L83.0626 989.427Z" fill="#36845E" fill-opacity="0.1"/>
<path d="M35.9741 972.615L38.3278 966.022L44.9202 968.376L45.2901 967.34L38.6977 964.986L41.0515 958.394L40.1097 958.057L37.756 964.65L31.1636 962.296L30.7937 963.332L37.3861 965.686L35.0323 972.278L35.9741 972.615Z" fill="#36845E" fill-opacity="0.1"/>
<path d="M-11.1146 955.802L-8.76079 949.21L-2.16839 951.563L-1.79848 950.527L-8.39088 948.173L-6.0371 941.581L-6.97887 941.245L-9.33265 947.837L-15.925 945.483L-16.295 946.519L-9.70256 948.873L-12.0563 955.466L-11.1146 955.802Z" fill="#36845E" fill-opacity="0.1"/>
<path d="M382.407 1043.21L384.761 1036.62L391.353 1038.98L391.723 1037.94L385.13 1035.59L387.484 1028.99L386.542 1028.66L384.189 1035.25L377.596 1032.9L377.226 1033.93L383.819 1036.29L381.465 1042.88L382.407 1043.21Z" fill="#36845E" fill-opacity="0.1"/>
<path d="M335.318 1026.4L337.672 1019.81L344.264 1022.16L344.634 1021.13L338.042 1018.77L340.396 1012.18L339.454 1011.85L337.1 1018.44L330.508 1016.08L330.138 1017.12L336.73 1019.47L334.376 1026.07L335.318 1026.4Z" fill="#36845E" fill-opacity="0.1"/>
<path d="M288.23 1009.59L290.583 1003L297.176 1005.35L297.546 1004.31L290.953 1001.96L293.307 995.369L292.365 995.032L290.011 1001.62L283.419 999.271L283.049 1000.31L289.642 1002.66L287.288 1009.25L288.23 1009.59Z" fill="#36845E" fill-opacity="0.1"/>
<path d="M241.141 992.777L243.495 986.184L250.087 988.538L250.457 987.502L243.865 985.148L246.219 978.556L245.277 978.22L242.923 984.812L236.331 982.458L235.961 983.494L242.553 985.848L240.199 992.441L241.141 992.777Z" fill="#36845E" fill-opacity="0.1"/>
<path d="M194.052 975.964L196.406 969.372L202.999 971.725L203.369 970.689L196.776 968.336L199.13 961.743L198.188 961.407L195.834 967.999L189.242 965.646L188.872 966.682L195.464 969.035L193.111 975.628L194.052 975.964Z" fill="#36845E" fill-opacity="0.1"/>
<path d="M146.964 959.151L149.318 952.559L155.91 954.913L156.28 953.877L149.687 951.523L152.041 944.931L151.099 944.594L148.746 951.187L142.153 948.833L141.783 949.869L148.376 952.223L146.022 958.815L146.964 959.151Z" fill="#36845E" fill-opacity="0.1"/>
<path d="M99.8753 942.339L102.229 935.746L108.821 938.1L109.191 937.064L102.599 934.71L104.953 928.118L104.011 927.782L101.657 934.374L95.0648 932.02L94.6949 933.056L101.287 935.41L98.9335 942.002L99.8753 942.339Z" fill="#36845E" fill-opacity="0.1"/>
<path d="M52.7867 925.526L55.1405 918.934L61.7329 921.287L62.1028 920.251L55.5104 917.898L57.8641 911.305L56.9224 910.969L54.5686 917.561L47.9762 915.208L47.6063 916.244L54.1987 918.597L51.8449 925.19L52.7867 925.526Z" fill="#36845E" fill-opacity="0.1"/>
<path d="M5.69818 908.713L8.05195 902.121L14.6444 904.475L15.0143 903.439L8.42187 901.085L10.7756 894.493L9.83387 894.156L7.48009 900.749L0.887695 898.395L0.517783 899.431L7.11018 901.785L4.75641 908.377L5.69818 908.713Z" fill="#36845E" fill-opacity="0.1"/>
<path d="M399.219 996.126L401.573 989.534L408.166 991.888L408.536 990.852L401.943 988.498L404.297 981.905L403.355 981.569L401.001 988.162L394.409 985.808L394.039 986.844L400.631 989.198L398.278 995.79L399.219 996.126Z" fill="#36845E" fill-opacity="0.1"/>
<path d="M352.131 979.314L354.485 972.721L361.077 975.075L361.447 974.039L354.855 971.685L357.208 965.093L356.267 964.756L353.913 971.349L347.32 968.995L346.95 970.031L353.543 972.385L351.189 978.977L352.131 979.314Z" fill="#36845E" fill-opacity="0.1"/>
<path d="M305.042 962.501L307.396 955.908L313.988 958.262L314.358 957.226L307.766 954.872L310.12 948.28L309.178 947.944L306.824 954.536L300.232 952.182L299.862 953.218L306.454 955.572L304.1 962.165L305.042 962.501Z" fill="#36845E" fill-opacity="0.1"/>
<path d="M257.954 945.688L260.307 939.096L266.9 941.45L267.27 940.414L260.677 938.06L263.031 931.467L262.089 931.131L259.736 937.724L253.143 935.37L252.773 936.406L259.366 938.76L257.012 945.352L257.954 945.688Z" fill="#36845E" fill-opacity="0.1"/>
<path d="M210.865 928.876L213.219 922.283L219.811 924.637L220.181 923.601L213.589 921.247L215.943 914.655L215.001 914.318L212.647 920.911L206.055 918.557L205.685 919.593L212.277 921.947L209.923 928.539L210.865 928.876Z" fill="#36845E" fill-opacity="0.1"/>
<path d="M163.777 912.063L166.13 905.47L172.723 907.824L173.093 906.788L166.5 904.434L168.854 897.842L167.912 897.506L165.558 904.098L158.966 901.744L158.596 902.78L165.189 905.134L162.835 911.727L163.777 912.063Z" fill="#36845E" fill-opacity="0.1"/>
<path d="M116.688 895.25L119.042 888.658L125.634 891.012L126.004 889.975L119.412 887.622L121.765 881.029L120.824 880.693L118.47 887.285L111.877 884.932L111.508 885.968L118.1 888.321L115.746 894.914L116.688 895.25Z" fill="#36845E" fill-opacity="0.1"/>
<path d="M69.5994 878.437L71.9532 871.845L78.5456 874.199L78.9155 873.163L72.3231 870.809L74.6769 864.217L73.7351 863.88L71.3813 870.473L64.7889 868.119L64.419 869.155L71.0114 871.509L68.6577 878.101L69.5994 878.437Z" fill="#36845E" fill-opacity="0.1"/>
<path d="M22.5108 861.625L24.8646 855.032L31.457 857.386L31.8269 856.35L25.2345 853.996L27.5883 847.404L26.6465 847.068L24.2927 853.66L17.7003 851.306L17.3304 852.342L23.9228 854.696L21.569 861.289L22.5108 861.625Z" fill="#36845E" fill-opacity="0.1"/>
<path d="M368.944 932.225L371.297 925.633L377.89 927.986L378.26 926.95L371.667 924.597L374.021 918.004L373.079 917.668L370.725 924.26L364.133 921.907L363.763 922.943L370.356 925.296L368.002 931.889L368.944 932.225Z" fill="#36845E" fill-opacity="0.1"/>
<path d="M321.855 915.412L324.209 908.82L330.801 911.174L331.171 910.138L324.579 907.784L326.932 901.191L325.991 900.855L323.637 907.448L317.044 905.094L316.675 906.13L323.267 908.484L320.913 915.076L321.855 915.412Z" fill="#36845E" fill-opacity="0.1"/>
<path d="M274.766 898.6L277.12 892.007L283.713 894.361L284.082 893.325L277.49 890.971L279.844 884.379L278.902 884.043L276.548 890.635L269.956 888.281L269.586 889.317L276.178 891.671L273.825 898.263L274.766 898.6Z" fill="#36845E" fill-opacity="0.1"/>
<path d="M227.678 881.787L230.032 875.195L236.624 877.548L236.994 876.512L230.401 874.158L232.755 867.566L231.813 867.23L229.46 873.822L222.867 871.468L222.497 872.504L229.09 874.858L226.736 881.451L227.678 881.787Z" fill="#36845E" fill-opacity="0.1"/>
<path d="M180.589 864.974L182.943 858.382L189.535 860.736L189.905 859.7L183.313 857.346L185.667 850.753L184.725 850.417L182.371 857.01L175.779 854.656L175.409 855.692L182.001 858.046L179.647 864.638L180.589 864.974Z" fill="#36845E" fill-opacity="0.1"/>
<path d="M133.501 848.162L135.854 841.569L142.447 843.923L142.817 842.887L136.224 840.533L138.578 833.941L137.636 833.604L135.283 840.197L128.69 837.843L128.32 838.879L134.913 841.233L132.559 847.825L133.501 848.162Z" fill="#36845E" fill-opacity="0.1"/>
<path d="M86.412 831.349L88.7658 824.756L95.3582 827.11L95.7281 826.074L89.1357 823.72L91.4895 817.128L90.5477 816.792L88.194 823.384L81.6016 821.03L81.2316 822.066L87.8241 824.42L85.4703 831.013L86.412 831.349Z" fill="#36845E" fill-opacity="0.1"/>
<path d="M39.3235 814.536L41.6773 807.944L48.2697 810.298L48.6396 809.262L42.0472 806.908L44.401 800.315L43.4592 799.979L41.1055 806.571L34.5131 804.218L34.1431 805.254L40.7355 807.608L38.3818 814.2L39.3235 814.536Z" fill="#36845E" fill-opacity="0.1"/>
<path d="M-7.76508 797.724L-5.4113 791.131L1.1811 793.485L1.55101 792.449L-5.04139 790.095L-2.68761 783.503L-3.62939 783.166L-5.98316 789.759L-12.5756 787.405L-12.9455 788.441L-6.35307 790.795L-8.70685 797.387L-7.76508 797.724Z" fill="#36845E" fill-opacity="0.1"/>
<path d="M385.756 885.136L388.11 878.544L394.702 880.898L395.072 879.862L388.48 877.508L390.834 870.916L389.892 870.579L387.538 877.172L380.946 874.818L380.576 875.854L387.168 878.208L384.814 884.8L385.756 885.136Z" fill="#36845E" fill-opacity="0.1"/>
<path d="M338.668 868.324L341.021 861.731L347.614 864.085L347.984 863.049L341.391 860.695L343.745 854.103L342.803 853.767L340.45 860.359L333.857 858.005L333.487 859.041L340.08 861.395L337.726 867.987L338.668 868.324Z" fill="#36845E" fill-opacity="0.1"/>
<path d="M291.579 851.511L293.933 844.919L300.525 847.272L300.895 846.236L294.303 843.883L296.657 837.29L295.715 836.954L293.361 843.546L286.769 841.193L286.399 842.229L292.991 844.582L290.637 851.175L291.579 851.511Z" fill="#36845E" fill-opacity="0.1"/>
<path d="M244.49 834.698L246.844 828.106L253.437 830.46L253.807 829.424L247.214 827.07L249.568 820.478L248.626 820.141L246.272 826.734L239.68 824.38L239.31 825.416L245.902 827.77L243.549 834.362L244.49 834.698Z" fill="#36845E" fill-opacity="0.1"/>
<path d="M197.402 817.886L199.756 811.293L206.348 813.647L206.718 812.611L200.126 810.257L202.479 803.665L201.538 803.329L199.184 809.921L192.591 807.567L192.222 808.603L198.814 810.957L196.46 817.549L197.402 817.886Z" fill="#36845E" fill-opacity="0.1"/>
<path d="M150.313 801.073L152.667 794.481L159.259 796.834L159.629 795.798L153.037 793.445L155.391 786.852L154.449 786.516L152.095 793.108L145.503 790.755L145.133 791.791L151.725 794.144L149.372 800.737L150.313 801.073Z" fill="#36845E" fill-opacity="0.1"/>
<path d="M103.225 784.26L105.579 777.668L112.171 780.022L112.541 778.986L105.948 776.632L108.302 770.039L107.36 769.703L105.007 776.296L98.4143 773.942L98.0444 774.978L104.637 777.332L102.283 783.924L103.225 784.26Z" fill="#36845E" fill-opacity="0.1"/>
<path d="M56.1362 767.448L58.4899 760.855L65.0823 763.209L65.4523 762.173L58.8599 759.819L61.2136 753.227L60.2719 752.891L57.9181 759.483L51.3257 757.129L50.9558 758.165L57.5482 760.519L55.1944 767.111L56.1362 767.448Z" fill="#36845E" fill-opacity="0.1"/>
<path d="M9.04767 750.635L11.4014 744.043L17.9938 746.396L18.3638 745.36L11.7714 743.007L14.1251 736.414L13.1834 736.078L10.8296 742.67L4.23718 740.316L3.86727 741.353L10.4597 743.706L8.10589 750.299L9.04767 750.635Z" fill="#36845E" fill-opacity="0.1"/>
<path d="M355.48 821.235L357.834 814.643L364.427 816.997L364.796 815.961L358.204 813.607L360.558 807.014L359.616 806.678L357.262 813.27L350.67 810.917L350.3 811.953L356.892 814.307L354.539 820.899L355.48 821.235Z" fill="#36845E" fill-opacity="0.1"/>
<path d="M308.392 804.422L310.745 797.83L317.338 800.184L317.708 799.148L311.115 796.794L313.469 790.202L312.527 789.865L310.174 796.458L303.581 794.104L303.211 795.14L309.804 797.494L307.45 804.086L308.392 804.422Z" fill="#36845E" fill-opacity="0.1"/>
<path d="M261.303 787.61L263.657 781.017L270.249 783.371L270.619 782.335L264.027 779.981L266.381 773.389L265.439 773.053L263.085 779.645L256.493 777.291L256.123 778.327L262.715 780.681L260.361 787.274L261.303 787.61Z" fill="#36845E" fill-opacity="0.1"/>
<path d="M214.215 770.797L216.568 764.205L223.161 766.558L223.531 765.522L216.938 763.169L219.292 756.576L218.35 756.24L215.997 762.832L209.404 760.479L209.034 761.515L215.627 763.868L213.273 770.461L214.215 770.797Z" fill="#36845E" fill-opacity="0.1"/>
<path d="M167.126 753.984L169.48 747.392L176.072 749.746L176.442 748.71L169.85 746.356L172.203 739.764L171.262 739.427L168.908 746.02L162.316 743.666L161.946 744.702L168.538 747.056L166.184 753.648L167.126 753.984Z" fill="#36845E" fill-opacity="0.1"/>
<path d="M120.037 737.172L122.391 730.579L128.984 732.933L129.353 731.897L122.761 729.543L125.115 722.951L124.173 722.615L121.819 729.207L115.227 726.853L114.857 727.889L121.449 730.243L119.096 736.835L120.037 737.172Z" fill="#36845E" fill-opacity="0.1"/>
<path d="M72.9489 720.359L75.3027 713.767L81.8951 716.12L82.265 715.084L75.6726 712.731L78.0264 706.138L77.0846 705.802L74.7308 712.394L68.1384 710.041L67.7685 711.077L74.3609 713.43L72.0071 720.023L72.9489 720.359Z" fill="#36845E" fill-opacity="0.1"/>
<path d="M25.8603 703.546L28.2141 696.954L34.8065 699.308L35.1764 698.272L28.584 695.918L30.9378 689.326L29.996 688.989L27.6422 695.582L21.0498 693.228L20.6799 694.264L27.2723 696.618L24.9185 703.21L25.8603 703.546Z" fill="#36845E" fill-opacity="0.1"/>
<path d="M372.293 774.147L374.647 767.554L381.239 769.908L381.609 768.872L375.017 766.518L377.37 759.926L376.429 759.589L374.075 766.182L367.483 763.828L367.113 764.864L373.705 767.218L371.351 773.81L372.293 774.147Z" fill="#36845E" fill-opacity="0.1"/>
<path d="M325.204 757.334L327.558 750.741L334.151 753.095L334.52 752.059L327.928 749.705L330.282 743.113L329.34 742.777L326.986 749.369L320.394 747.015L320.024 748.051L326.616 750.405L324.263 756.998L325.204 757.334Z" fill="#36845E" fill-opacity="0.1"/>
<path d="M278.116 740.521L280.47 733.929L287.062 736.283L287.432 735.247L280.84 732.893L283.193 726.3L282.252 725.964L279.898 732.557L273.305 730.203L272.935 731.239L279.528 733.593L277.174 740.185L278.116 740.521Z" fill="#36845E" fill-opacity="0.1"/>
<path d="M231.027 723.709L233.381 717.116L239.973 719.47L240.343 718.434L233.751 716.08L236.105 709.488L235.163 709.151L232.809 715.744L226.217 713.39L225.847 714.426L232.439 716.78L230.086 723.372L231.027 723.709Z" fill="#36845E" fill-opacity="0.1"/>
<path d="M183.939 706.896L186.292 700.303L192.885 702.657L193.255 701.621L186.662 699.267L189.016 692.675L188.074 692.339L185.721 698.931L179.128 696.577L178.758 697.613L185.351 699.967L182.997 706.56L183.939 706.896Z" fill="#36845E" fill-opacity="0.1"/>
<path d="M136.85 690.083L139.204 683.491L145.796 685.845L146.166 684.809L139.574 682.455L141.928 675.862L140.986 675.526L138.632 682.118L132.04 679.765L131.67 680.801L138.262 683.155L135.908 689.747L136.85 690.083Z" fill="#36845E" fill-opacity="0.1"/>
<path d="M89.7615 673.27L92.1153 666.678L98.7077 669.032L99.0776 667.996L92.4852 665.642L94.839 659.05L93.8972 658.713L91.5434 665.306L84.951 662.952L84.5811 663.988L91.1735 666.342L88.8198 672.934L89.7615 673.27Z" fill="#36845E" fill-opacity="0.1"/>
<path d="M42.673 656.458L45.0268 649.865L51.6192 652.219L51.9891 651.183L45.3967 648.829L47.7505 642.237L46.8087 641.901L44.4549 648.493L37.8625 646.139L37.4926 647.175L44.085 649.529L41.7313 656.122L42.673 656.458Z" fill="#36845E" fill-opacity="0.1"/>
<path d="M-4.41559 639.645L-2.06182 633.053L4.53058 635.407L4.9005 634.37L-1.6919 632.017L0.661872 625.424L-0.279899 625.088L-2.63367 631.68L-9.22607 629.327L-9.59599 630.363L-3.00359 632.716L-5.35736 639.309L-4.41559 639.645Z" fill="#36845E" fill-opacity="0.1"/>
<path d="M389.106 727.058L391.459 720.466L398.052 722.819L398.422 721.783L391.829 719.43L394.183 712.837L393.241 712.501L390.888 719.093L384.295 716.74L383.925 717.776L390.518 720.129L388.164 726.722L389.106 727.058Z" fill="#36845E" fill-opacity="0.1"/>
<path d="M342.017 710.245L344.371 703.653L350.963 706.007L351.333 704.971L344.741 702.617L347.095 696.024L346.153 695.688L343.799 702.281L337.207 699.927L336.837 700.963L343.429 703.317L341.075 709.909L342.017 710.245Z" fill="#36845E" fill-opacity="0.1"/>
<path d="M294.929 693.433L297.282 686.84L303.875 689.194L304.245 688.158L297.652 685.804L300.006 679.212L299.064 678.876L296.71 685.468L290.118 683.114L289.748 684.15L296.341 686.504L293.987 693.096L294.929 693.433Z" fill="#36845E" fill-opacity="0.1"/>
<path d="M247.84 676.62L250.194 670.028L256.786 672.381L257.156 671.345L250.564 668.992L252.917 662.399L251.976 662.063L249.622 668.655L243.029 666.301L242.66 667.338L249.252 669.691L246.898 676.284L247.84 676.62Z" fill="#36845E" fill-opacity="0.1"/>
<path d="M200.751 659.807L203.105 653.215L209.698 655.569L210.067 654.533L203.475 652.179L205.829 645.586L204.887 645.25L202.533 651.843L195.941 649.489L195.571 650.525L202.163 652.879L199.81 659.471L200.751 659.807Z" fill="#36845E" fill-opacity="0.1"/>
<path d="M153.663 642.995L156.017 636.402L162.609 638.756L162.979 637.72L156.386 635.366L158.74 628.774L157.798 628.438L155.445 635.03L148.852 632.676L148.482 633.712L155.075 636.066L152.721 642.658L153.663 642.995Z" fill="#36845E" fill-opacity="0.1"/>
<path d="M106.574 626.182L108.928 619.59L115.52 621.943L115.89 620.907L109.298 618.553L111.652 611.961L110.71 611.625L108.356 618.217L101.764 615.863L101.394 616.899L107.986 619.253L105.633 625.846L106.574 626.182Z" fill="#36845E" fill-opacity="0.1"/>
<path d="M59.4857 609.369L61.8394 602.777L68.4318 605.131L68.8017 604.095L62.2093 601.741L64.5631 595.148L63.6213 594.812L61.2676 601.405L54.6752 599.051L54.3053 600.087L60.8977 602.441L58.5439 609.033L59.4857 609.369Z" fill="#36845E" fill-opacity="0.1"/>
<path d="M12.3972 592.557L14.7509 585.964L21.3433 588.318L21.7132 587.282L15.1208 584.928L17.4746 578.336L16.5328 577.999L14.1791 584.592L7.58667 582.238L7.21676 583.274L13.8092 585.628L11.4554 592.22L12.3972 592.557Z" fill="#36845E" fill-opacity="0.1"/>
<path d="M358.83 663.157L361.184 656.564L367.776 658.918L368.146 657.882L361.553 655.528L363.907 648.936L362.965 648.6L360.612 655.192L354.019 652.838L353.649 653.874L360.242 656.228L357.888 662.82L358.83 663.157Z" fill="#36845E" fill-opacity="0.1"/>
<path d="M311.741 646.344L314.095 639.752L320.687 642.105L321.057 641.069L314.465 638.716L316.819 632.123L315.877 631.787L313.523 638.379L306.931 636.026L306.561 637.062L313.153 639.415L310.799 646.008L311.741 646.344Z" fill="#36845E" fill-opacity="0.1"/>
<path d="M264.653 629.531L267.006 622.939L273.599 625.293L273.969 624.257L267.376 621.903L269.73 615.311L268.788 614.974L266.435 621.567L259.842 619.213L259.472 620.249L266.065 622.603L263.711 629.195L264.653 629.531Z" fill="#36845E" fill-opacity="0.1"/>
<path d="M217.564 612.719L219.918 606.126L226.51 608.48L226.88 607.444L220.288 605.09L222.641 598.498L221.7 598.162L219.346 604.754L212.754 602.4L212.384 603.436L218.976 605.79L216.622 612.382L217.564 612.719Z" fill="#36845E" fill-opacity="0.1"/>
<path d="M170.476 595.906L172.829 589.314L179.422 591.667L179.792 590.631L173.199 588.278L175.553 581.685L174.611 581.349L172.257 587.941L165.665 585.588L165.295 586.624L171.888 588.977L169.534 595.57L170.476 595.906Z" fill="#36845E" fill-opacity="0.1"/>
<path d="M123.387 579.093L125.741 572.501L132.333 574.855L132.703 573.819L126.111 571.465L128.464 564.872L127.523 564.536L125.169 571.129L118.576 568.775L118.207 569.811L124.799 572.165L122.445 578.757L123.387 579.093Z" fill="#36845E" fill-opacity="0.1"/>
<path d="M76.2984 562.281L78.6522 555.688L85.2446 558.042L85.6145 557.006L79.0221 554.652L81.3759 548.06L80.4341 547.724L78.0803 554.316L71.4879 551.962L71.118 552.998L77.7104 555.352L75.3566 561.944L76.2984 562.281Z" fill="#36845E" fill-opacity="0.1"/>
<path d="M29.2098 545.468L31.5636 538.876L38.156 541.229L38.5259 540.193L31.9335 537.84L34.2872 531.247L33.3455 530.911L30.9917 537.503L24.3993 535.15L24.0294 536.186L30.6218 538.539L28.268 545.132L29.2098 545.468Z" fill="#36845E" fill-opacity="0.1"/>
<path d="M375.642 616.068L377.996 609.476L384.589 611.83L384.959 610.794L378.366 608.44L380.72 601.847L379.778 601.511L377.424 608.103L370.832 605.75L370.462 606.786L377.054 609.14L374.701 615.732L375.642 616.068Z" fill="#36845E" fill-opacity="0.1"/>
<path d="M328.554 599.256L330.908 592.663L337.5 595.017L337.87 593.981L331.278 591.627L333.631 585.035L332.69 584.698L330.336 591.291L323.743 588.937L323.373 589.973L329.966 592.327L327.612 598.919L328.554 599.256Z" fill="#36845E" fill-opacity="0.1"/>
<path d="M281.465 582.443L283.819 575.85L290.412 578.204L290.781 577.168L284.189 574.814L286.543 568.222L285.601 567.886L283.247 574.478L276.655 572.124L276.285 573.16L282.877 575.514L280.524 582.107L281.465 582.443Z" fill="#36845E" fill-opacity="0.1"/>
<path d="M234.377 565.63L236.731 559.038L243.323 561.392L243.693 560.355L237.1 558.002L239.454 551.409L238.512 551.073L236.159 557.665L229.566 555.312L229.196 556.348L235.789 558.701L233.435 565.294L234.377 565.63Z" fill="#36845E" fill-opacity="0.1"/>
<path d="M187.288 548.817L189.642 542.225L196.234 544.579L196.604 543.543L190.012 541.189L192.366 534.597L191.424 534.26L189.07 540.853L182.478 538.499L182.108 539.535L188.7 541.889L186.346 548.481L187.288 548.817Z" fill="#36845E" fill-opacity="0.1"/>
<path d="M140.2 532.005L142.553 525.412L149.146 527.766L149.516 526.73L142.923 524.376L145.277 517.784L144.335 517.448L141.982 524.04L135.389 521.686L135.019 522.722L141.612 525.076L139.258 531.669L140.2 532.005Z" fill="#36845E" fill-opacity="0.1"/>
<path d="M93.111 515.192L95.4648 508.6L102.057 510.953L102.427 509.917L95.8347 507.564L98.1885 500.971L97.2467 500.635L94.8929 507.227L88.3005 504.874L87.9306 505.91L94.523 508.263L92.1692 514.856L93.111 515.192Z" fill="#36845E" fill-opacity="0.1"/>
<path d="M46.0225 498.379L48.3763 491.787L54.9687 494.141L55.3386 493.105L48.7462 490.751L51.1 484.159L50.1582 483.822L47.8044 490.415L41.212 488.061L40.8421 489.097L47.4345 491.451L45.0807 498.043L46.0225 498.379Z" fill="#36845E" fill-opacity="0.1"/>
<path d="M-1.0661 481.567L1.28767 474.974L7.88007 477.328L8.24998 476.292L1.65758 473.938L4.01136 467.346L3.06959 467.01L0.715812 473.602L-5.87659 471.248L-6.2465 472.284L0.345901 474.638L-2.00788 481.23L-1.0661 481.567Z" fill="#36845E" fill-opacity="0.1"/>
<path d="M392.455 568.98L394.809 562.387L401.401 564.741L401.771 563.705L395.179 561.351L397.533 554.759L396.591 554.423L394.237 561.015L387.645 558.661L387.275 559.697L393.867 562.051L391.513 568.643L392.455 568.98Z" fill="#36845E" fill-opacity="0.1"/>
<path d="M345.367 552.167L347.72 545.575L354.313 547.928L354.683 546.892L348.09 544.538L350.444 537.946L349.502 537.61L347.148 544.202L340.556 541.848L340.186 542.885L346.779 545.238L344.425 551.831L345.367 552.167Z" fill="#36845E" fill-opacity="0.1"/>
<path d="M298.278 535.354L300.632 528.762L307.224 531.116L307.594 530.08L301.002 527.726L303.355 521.133L302.414 520.797L300.06 527.39L293.468 525.036L293.098 526.072L299.69 528.426L297.336 535.018L298.278 535.354Z" fill="#36845E" fill-opacity="0.1"/>
<path d="M251.189 518.542L253.543 511.949L260.136 514.303L260.506 513.267L253.913 510.913L256.267 504.321L255.325 503.984L252.971 510.577L246.379 508.223L246.009 509.259L252.601 511.613L250.248 518.205L251.189 518.542Z" fill="#36845E" fill-opacity="0.1"/>
<path d="M204.101 501.729L206.455 495.136L213.047 497.49L213.417 496.454L206.825 494.1L209.178 487.508L208.237 487.172L205.883 493.764L199.29 491.41L198.92 492.446L205.513 494.8L203.159 501.393L204.101 501.729Z" fill="#36845E" fill-opacity="0.1"/>
<path d="M157.012 484.916L159.366 478.324L165.958 480.678L166.328 479.642L159.736 477.288L162.09 470.695L161.148 470.359L158.794 476.952L152.202 474.598L151.832 475.634L158.424 477.988L156.07 484.58L157.012 484.916Z" fill="#36845E" fill-opacity="0.1"/>
<path d="M109.924 468.104L112.278 461.511L118.87 463.865L119.24 462.829L112.647 460.475L115.001 453.883L114.059 453.546L111.706 460.139L105.113 457.785L104.743 458.821L111.336 461.175L108.982 467.767L109.924 468.104Z" fill="#36845E" fill-opacity="0.1"/>
<path d="M62.8351 451.291L65.1889 444.698L71.7813 447.052L72.1512 446.016L65.5588 443.662L67.9126 437.07L66.9708 436.734L64.6171 443.326L58.0247 440.972L57.6547 442.008L64.2471 444.362L61.8934 450.955L62.8351 451.291Z" fill="#36845E" fill-opacity="0.1"/>
<path d="M15.7466 434.478L18.1004 427.886L24.6928 430.24L25.0627 429.203L18.4703 426.85L20.8241 420.257L19.8823 419.921L17.5286 426.513L10.9362 424.16L10.5662 425.196L17.1586 427.549L14.8049 434.142L15.7466 434.478Z" fill="#36845E" fill-opacity="0.1"/>
<path d="M362.179 505.078L364.533 498.486L371.125 500.84L371.495 499.804L364.903 497.45L367.257 490.858L366.315 490.521L363.961 497.114L357.369 494.76L356.999 495.796L363.591 498.15L361.237 504.742L362.179 505.078Z" fill="#36845E" fill-opacity="0.1"/>
<path d="M315.091 488.266L317.444 481.673L324.037 484.027L324.407 482.991L317.814 480.637L320.168 474.045L319.226 473.709L316.873 480.301L310.28 477.947L309.91 478.983L316.503 481.337L314.149 487.929L315.091 488.266Z" fill="#36845E" fill-opacity="0.1"/>
<path d="M268.002 471.453L270.356 464.861L276.948 467.214L277.318 466.178L270.726 463.825L273.08 457.232L272.138 456.896L269.784 463.488L263.192 461.135L262.822 462.171L269.414 464.524L267.06 471.117L268.002 471.453Z" fill="#36845E" fill-opacity="0.1"/>
<path d="M220.914 454.64L223.267 448.048L229.86 450.402L230.23 449.366L223.637 447.012L225.991 440.419L225.049 440.083L222.695 446.676L216.103 444.322L215.733 445.358L222.326 447.712L219.972 454.304L220.914 454.64Z" fill="#36845E" fill-opacity="0.1"/>
<path d="M173.825 437.828L176.179 431.235L182.771 433.589L183.141 432.553L176.549 430.199L178.902 423.607L177.961 423.271L175.607 429.863L169.015 427.509L168.645 428.545L175.237 430.899L172.883 437.491L173.825 437.828Z" fill="#36845E" fill-opacity="0.1"/>
<path d="M126.736 421.015L129.09 414.423L135.683 416.776L136.052 415.74L129.46 413.387L131.814 406.794L130.872 406.458L128.518 413.05L121.926 410.696L121.556 411.733L128.148 414.086L125.795 420.679L126.736 421.015Z" fill="#36845E" fill-opacity="0.1"/>
<path d="M79.6479 404.202L82.0017 397.61L88.5941 399.964L88.964 398.928L82.3716 396.574L84.7253 389.981L83.7836 389.645L81.4298 396.238L74.8374 393.884L74.4675 394.92L81.0599 397.274L78.7061 403.866L79.6479 404.202Z" fill="#36845E" fill-opacity="0.1"/>
<path d="M32.5593 387.39L34.913 380.797L41.5054 383.151L41.8754 382.115L35.283 379.761L37.6367 373.169L36.695 372.832L34.3412 379.425L27.7488 377.071L27.3789 378.107L33.9713 380.461L31.6175 387.053L32.5593 387.39Z" fill="#36845E" fill-opacity="0.1"/>
<path d="M378.992 457.99L381.346 451.397L387.938 453.751L388.308 452.715L381.716 450.361L384.069 443.769L383.128 443.433L380.774 450.025L374.181 447.671L373.812 448.707L380.404 451.061L378.05 457.654L378.992 457.99Z" fill="#36845E" fill-opacity="0.1"/>
<path d="M331.903 441.177L334.257 434.585L340.85 436.938L341.219 435.902L334.627 433.549L336.981 426.956L336.039 426.62L333.685 433.212L327.093 430.859L326.723 431.895L333.315 434.248L330.962 440.841L331.903 441.177Z" fill="#36845E" fill-opacity="0.1"/>
<path d="M284.815 424.364L287.169 417.772L293.761 420.126L294.131 419.09L287.539 416.736L289.892 410.144L288.951 409.807L286.597 416.4L280.004 414.046L279.634 415.082L286.227 417.436L283.873 424.028L284.815 424.364Z" fill="#36845E" fill-opacity="0.1"/>
<path d="M237.726 407.552L240.08 400.959L246.672 403.313L247.042 402.277L240.45 399.923L242.804 393.331L241.862 392.995L239.508 399.587L232.916 397.233L232.546 398.269L239.138 400.623L236.784 407.215L237.726 407.552Z" fill="#36845E" fill-opacity="0.1"/>
<path d="M190.638 390.739L192.991 384.147L199.584 386.5L199.954 385.464L193.361 383.111L195.715 376.518L194.773 376.182L192.42 382.774L185.827 380.421L185.457 381.457L192.05 383.81L189.696 390.403L190.638 390.739Z" fill="#36845E" fill-opacity="0.1"/>
<path d="M143.549 373.926L145.903 367.334L152.495 369.688L152.865 368.652L146.273 366.298L148.627 359.706L147.685 359.369L145.331 365.962L138.739 363.608L138.369 364.644L144.961 366.998L142.607 373.59L143.549 373.926Z" fill="#36845E" fill-opacity="0.1"/>
<path d="M96.4605 357.114L98.8143 350.521L105.407 352.875L105.777 351.839L99.1842 349.485L101.538 342.893L100.596 342.557L98.2424 349.149L91.65 346.795L91.2801 347.831L97.8725 350.185L95.5187 356.777L96.4605 357.114Z" fill="#36845E" fill-opacity="0.1"/>
<path d="M49.372 340.301L51.7258 333.709L58.3182 336.062L58.6881 335.026L52.0957 332.673L54.4495 326.08L53.5077 325.744L51.1539 332.336L44.5615 329.983L44.1916 331.019L50.784 333.372L48.4302 339.965L49.372 340.301Z" fill="#36845E" fill-opacity="0.1"/>
<path d="M2.28338 323.488L4.63716 316.896L11.2296 319.25L11.5995 318.214L5.00707 315.86L7.36085 309.267L6.41908 308.931L4.0653 315.524L-2.5271 313.17L-2.89701 314.206L3.69539 316.56L1.34161 323.152L2.28338 323.488Z" fill="#36845E" fill-opacity="0.1"/>
<path d="M395.805 410.901L398.158 404.309L404.751 406.663L405.121 405.627L398.528 403.273L400.882 396.68L399.94 396.344L397.587 402.937L390.994 400.583L390.624 401.619L397.217 403.973L394.863 410.565L395.805 410.901Z" fill="#36845E" fill-opacity="0.1"/>
<path d="M348.716 394.089L351.07 387.496L357.662 389.85L358.032 388.814L351.44 386.46L353.794 379.868L352.852 379.531L350.498 386.124L343.906 383.77L343.536 384.806L350.128 387.16L347.774 393.752L348.716 394.089Z" fill="#36845E" fill-opacity="0.1"/>
<path d="M301.627 377.276L303.981 370.683L310.574 373.037L310.944 372.001L304.351 369.647L306.705 363.055L305.763 362.719L303.409 369.311L296.817 366.957L296.447 367.993L303.04 370.347L300.686 376.94L301.627 377.276Z" fill="#36845E" fill-opacity="0.1"/>
<path d="M254.539 360.463L256.893 353.871L263.485 356.225L263.855 355.188L257.263 352.835L259.616 346.242L258.675 345.906L256.321 352.498L249.728 350.145L249.359 351.181L255.951 353.535L253.597 360.127L254.539 360.463Z" fill="#36845E" fill-opacity="0.1"/>
<path d="M207.45 343.65L209.804 337.058L216.397 339.412L216.766 338.376L210.174 336.022L212.528 329.43L211.586 329.093L209.232 335.686L202.64 333.332L202.27 334.368L208.862 336.722L206.509 343.314L207.45 343.65Z" fill="#36845E" fill-opacity="0.1"/>
<path d="M160.362 326.838L162.716 320.245L169.308 322.599L169.678 321.563L163.085 319.209L165.439 312.617L164.497 312.281L162.144 318.873L155.551 316.519L155.181 317.555L161.774 319.909L159.42 326.502L160.362 326.838Z" fill="#36845E" fill-opacity="0.1"/>
<path d="M113.273 310.025L115.627 303.433L122.219 305.786L122.589 304.75L115.997 302.397L118.351 295.804L117.409 295.468L115.055 302.06L108.463 299.707L108.093 300.743L114.685 303.096L112.331 309.689L113.273 310.025Z" fill="#36845E" fill-opacity="0.1"/>
<path d="M66.1846 293.212L68.5384 286.62L75.1308 288.974L75.5007 287.938L68.9083 285.584L71.2621 278.992L70.3203 278.655L67.9665 285.248L61.3741 282.894L61.0042 283.93L67.5966 286.284L65.2429 292.876L66.1846 293.212Z" fill="#36845E" fill-opacity="0.1"/>
<path d="M19.096 276.4L21.4498 269.807L28.0422 272.161L28.4121 271.125L21.8197 268.771L24.1735 262.179L23.2317 261.843L20.8779 268.435L14.2855 266.081L13.9156 267.117L20.508 269.471L18.1542 276.063L19.096 276.4Z" fill="#36845E" fill-opacity="0.1"/>
<path d="M365.529 347L367.883 340.408L374.475 342.761L374.845 341.725L368.252 339.372L370.606 332.779L369.664 332.443L367.311 339.035L360.718 336.681L360.348 337.718L366.941 340.071L364.587 346.664L365.529 347Z" fill="#36845E" fill-opacity="0.1"/>
<path d="M318.44 330.187L320.794 323.595L327.386 325.949L327.756 324.913L321.164 322.559L323.518 315.966L322.576 315.63L320.222 322.223L313.63 319.869L313.26 320.905L319.852 323.259L317.498 329.851L318.44 330.187Z" fill="#36845E" fill-opacity="0.1"/>
<path d="M271.352 313.375L273.705 306.782L280.298 309.136L280.668 308.1L274.075 305.746L276.429 299.154L275.487 298.817L273.134 305.41L266.541 303.056L266.171 304.092L272.764 306.446L270.41 313.038L271.352 313.375Z" fill="#36845E" fill-opacity="0.1"/>
<path d="M224.263 296.562L226.617 289.97L233.209 292.323L233.579 291.287L226.987 288.933L229.34 282.341L228.399 282.005L226.045 288.597L219.453 286.243L219.083 287.279L225.675 289.633L223.321 296.226L224.263 296.562Z" fill="#36845E" fill-opacity="0.1"/>
<path d="M177.174 279.749L179.528 273.157L186.121 275.511L186.491 274.475L179.898 272.121L182.252 265.528L181.31 265.192L178.956 271.785L172.364 269.431L171.994 270.467L178.587 272.821L176.233 279.413L177.174 279.749Z" fill="#36845E" fill-opacity="0.1"/>
<path d="M130.086 262.937L132.44 256.344L139.032 258.698L139.402 257.662L132.81 255.308L135.163 248.716L134.222 248.379L131.868 254.972L125.275 252.618L124.905 253.654L131.498 256.008L129.144 262.6L130.086 262.937Z" fill="#36845E" fill-opacity="0.1"/>
<path d="M82.9974 246.124L85.3511 239.531L91.9435 241.885L92.3135 240.849L85.7211 238.495L88.0748 231.903L87.1331 231.567L84.7793 238.159L78.1869 235.805L77.817 236.841L84.4094 239.195L82.0556 245.788L82.9974 246.124Z" fill="#36845E" fill-opacity="0.1"/>
<path d="M35.9087 229.311L38.2625 222.719L44.8549 225.073L45.2248 224.037L38.6324 221.683L40.9862 215.09L40.0444 214.754L37.6907 221.346L31.0983 218.993L30.7284 220.029L37.3208 222.383L34.967 228.975L35.9087 229.311Z" fill="#36845E" fill-opacity="0.1"/>
<path d="M-11.1799 212.498L-8.8261 205.906L-2.2337 208.26L-1.86379 207.224L-8.45619 204.87L-6.10241 198.278L-7.04418 197.941L-9.39796 204.534L-15.9904 202.18L-16.3603 203.216L-9.76787 205.57L-12.1216 212.162L-11.1799 212.498Z" fill="#36845E" fill-opacity="0.1"/>
<path d="M382.341 299.911L384.695 293.319L391.288 295.673L391.658 294.637L385.065 292.283L387.419 285.691L386.477 285.354L384.123 291.947L377.531 289.593L377.161 290.629L383.753 292.983L381.4 299.575L382.341 299.911Z" fill="#36845E" fill-opacity="0.1"/>
<path d="M335.253 283.099L337.607 276.506L344.199 278.86L344.569 277.824L337.977 275.47L340.33 268.878L339.389 268.542L337.035 275.134L330.442 272.78L330.072 273.816L336.665 276.17L334.311 282.762L335.253 283.099Z" fill="#36845E" fill-opacity="0.1"/>
<path d="M288.164 266.286L290.518 259.694L297.11 262.047L297.48 261.011L290.888 258.658L293.242 252.065L292.3 251.729L289.946 258.321L283.354 255.968L282.984 257.004L289.576 259.357L287.223 265.95L288.164 266.286Z" fill="#36845E" fill-opacity="0.1"/>
<path d="M241.076 249.473L243.43 242.881L250.022 245.235L250.392 244.199L243.799 241.845L246.153 235.252L245.211 234.916L242.858 241.509L236.265 239.155L235.895 240.191L242.488 242.545L240.134 249.137L241.076 249.473Z" fill="#36845E" fill-opacity="0.1"/>
<path d="M193.987 232.661L196.341 226.068L202.933 228.422L203.303 227.386L196.711 225.032L199.065 218.44L198.123 218.104L195.769 224.696L189.177 222.342L188.807 223.378L195.399 225.732L193.045 232.324L193.987 232.661Z" fill="#36845E" fill-opacity="0.1"/>
<path d="M146.899 215.848L149.252 209.256L155.845 211.609L156.215 210.573L149.622 208.22L151.976 201.627L151.034 201.291L148.681 207.883L142.088 205.529L141.718 206.566L148.311 208.919L145.957 215.512L146.899 215.848Z" fill="#36845E" fill-opacity="0.1"/>
<path d="M99.81 199.035L102.164 192.443L108.756 194.797L109.126 193.761L102.534 191.407L104.887 184.814L103.946 184.478L101.592 191.071L94.9995 188.717L94.6296 189.753L101.222 192.107L98.8682 198.699L99.81 199.035Z" fill="#36845E" fill-opacity="0.1"/>
<path d="M52.7214 182.223L55.0751 175.63L61.6675 177.984L62.0375 176.948L55.4451 174.594L57.7988 168.002L56.8571 167.666L54.5033 174.258L47.9109 171.904L47.541 172.94L54.1334 175.294L51.7796 181.886L52.7214 182.223Z" fill="#36845E" fill-opacity="0.1"/>
<path d="M5.63287 165.41L7.98665 158.818L14.579 161.171L14.949 160.135L8.35656 157.781L10.7103 151.189L9.76856 150.853L7.41479 157.445L0.822387 155.091L0.452475 156.127L7.04488 158.481L4.6911 165.074L5.63287 165.41Z" fill="#36845E" fill-opacity="0.1"/>
<path d="M399.154 252.823L401.508 246.23L408.1 248.584L408.47 247.548L401.878 245.194L404.232 238.602L403.29 238.266L400.936 244.858L394.344 242.504L393.974 243.54L400.566 245.894L398.212 252.487L399.154 252.823Z" fill="#36845E" fill-opacity="0.1"/>
<path d="M352.066 236.01L354.419 229.418L361.012 231.772L361.382 230.735L354.789 228.382L357.143 221.789L356.201 221.453L353.847 228.045L347.255 225.692L346.885 226.728L353.478 229.081L351.124 235.674L352.066 236.01Z" fill="#36845E" fill-opacity="0.1"/>
<path d="M304.977 219.197L307.331 212.605L313.923 214.959L314.293 213.923L307.701 211.569L310.054 204.977L309.113 204.64L306.759 211.233L300.167 208.879L299.797 209.915L306.389 212.269L304.035 218.861L304.977 219.197Z" fill="#36845E" fill-opacity="0.1"/>
<path d="M257.888 202.385L260.242 195.792L266.835 198.146L267.205 197.11L260.612 194.756L262.966 188.164L262.024 187.828L259.67 194.42L253.078 192.066L252.708 193.102L259.3 195.456L256.947 202.049L257.888 202.385Z" fill="#36845E" fill-opacity="0.1"/>
<path d="M210.8 185.572L213.154 178.98L219.746 181.333L220.116 180.297L213.524 177.944L215.877 171.351L214.936 171.015L212.582 177.607L205.989 175.254L205.619 176.29L212.212 178.643L209.858 185.236L210.8 185.572Z" fill="#36845E" fill-opacity="0.1"/>
<path d="M163.711 168.759L166.065 162.167L172.657 164.521L173.027 163.485L166.435 161.131L168.789 154.539L167.847 154.202L165.493 160.795L158.901 158.441L158.531 159.477L165.123 161.831L162.769 168.423L163.711 168.759Z" fill="#36845E" fill-opacity="0.1"/>
<path d="M116.623 151.947L118.977 145.354L125.569 147.708L125.939 146.672L119.346 144.318L121.7 137.726L120.758 137.39L118.405 143.982L111.812 141.628L111.442 142.664L118.035 145.018L115.681 151.61L116.623 151.947Z" fill="#36845E" fill-opacity="0.1"/>
<path d="M69.5341 135.134L71.8879 128.542L78.4803 130.895L78.8502 129.859L72.2578 127.506L74.6116 120.913L73.6698 120.577L71.316 127.169L64.7236 124.816L64.3537 125.852L70.9461 128.205L68.5923 134.798L69.5341 135.134Z" fill="#36845E" fill-opacity="0.1"/>
<path d="M22.4455 118.321L24.7993 111.729L31.3917 114.083L31.7616 113.047L25.1692 110.693L27.523 104.101L26.5812 103.764L24.2274 110.357L17.635 108.003L17.2651 109.039L23.8575 111.393L21.5037 117.985L22.4455 118.321Z" fill="#36845E" fill-opacity="0.1"/>
<path d="M368.878 188.922L371.232 182.329L377.824 184.683L378.194 183.647L371.602 181.293L373.956 174.701L373.014 174.364L370.66 180.957L364.068 178.603L363.698 179.639L370.29 181.993L367.936 188.585L368.878 188.922Z" fill="#36845E" fill-opacity="0.1"/>
<path d="M321.79 172.109L324.143 165.516L330.736 167.87L331.106 166.834L324.513 164.48L326.867 157.888L325.925 157.552L323.572 164.144L316.979 161.79L316.609 162.826L323.202 165.18L320.848 171.773L321.79 172.109Z" fill="#36845E" fill-opacity="0.1"/>
<path d="M274.701 155.296L277.055 148.704L283.647 151.058L284.017 150.022L277.425 147.668L279.779 141.075L278.837 140.739L276.483 147.332L269.891 144.978L269.521 146.014L276.113 148.368L273.759 154.96L274.701 155.296Z" fill="#36845E" fill-opacity="0.1"/>
<path d="M227.612 138.484L229.966 131.891L236.559 134.245L236.929 133.209L230.336 130.855L232.69 124.263L231.748 123.926L229.394 130.519L222.802 128.165L222.432 129.201L229.024 131.555L226.671 138.147L227.612 138.484Z" fill="#36845E" fill-opacity="0.1"/>
<path d="M180.524 121.671L182.878 115.078L189.47 117.432L189.84 116.396L183.248 114.042L185.601 107.45L184.66 107.114L182.306 113.706L175.714 111.352L175.344 112.388L181.936 114.742L179.582 121.335L180.524 121.671Z" fill="#36845E" fill-opacity="0.1"/>
<path d="M133.435 104.858L135.789 98.2658L142.382 100.62L142.751 99.5835L136.159 97.2297L138.513 90.6373L137.571 90.3011L135.217 96.8935L128.625 94.5397L128.255 95.5757L134.847 97.9295L132.494 104.522L133.435 104.858Z" fill="#36845E" fill-opacity="0.1"/>
<path d="M86.3467 88.0454L88.7005 81.453L95.2929 83.8068L95.6628 82.7708L89.0704 80.417L91.4242 73.8246L90.4824 73.4883L88.1287 80.0807L81.5363 77.727L81.1663 78.763L87.7587 81.1168L85.405 87.7092L86.3467 88.0454Z" fill="#36845E" fill-opacity="0.1"/>
<path d="M39.2582 71.2328L41.612 64.6404L48.2044 66.9941L48.5743 65.9581L41.9819 63.6043L44.3357 57.0119L43.3939 56.6757L41.0402 63.2681L34.4478 60.9143L34.0778 61.9503L40.6702 64.3041L38.3165 70.8965L39.2582 71.2328Z" fill="#36845E" fill-opacity="0.1"/>
<path d="M-7.83039 54.4201L-5.47661 47.8277L1.11579 50.1814L1.4857 49.1454L-5.1067 46.7916L-2.75292 40.1992L-3.69469 39.863L-6.04847 46.4554L-12.6409 44.1016L-13.0108 45.1376L-6.41838 47.4914L-8.77216 54.0838L-7.83039 54.4201Z" fill="#36845E" fill-opacity="0.1"/>
<path d="M385.691 141.833L388.045 135.241L394.637 137.594L395.007 136.558L388.415 134.205L390.768 127.612L389.827 127.276L387.473 133.868L380.88 131.515L380.511 132.551L387.103 134.904L384.749 141.497L385.691 141.833Z" fill="#36845E" fill-opacity="0.1"/>
<path d="M338.602 125.02L340.956 118.428L347.549 120.782L347.918 119.746L341.326 117.392L343.68 110.799L342.738 110.463L340.384 117.056L333.792 114.702L333.422 115.738L340.014 118.092L337.661 124.684L338.602 125.02Z" fill="#36845E" fill-opacity="0.1"/>
<path d="M291.514 108.208L293.868 101.615L300.46 103.969L300.83 102.933L294.237 100.579L296.591 93.9868L295.649 93.6505L293.296 100.243L286.703 97.8891L286.333 98.9252L292.926 101.279L290.572 107.871L291.514 108.208Z" fill="#36845E" fill-opacity="0.1"/>
<path d="M244.425 91.3949L246.779 84.8025L253.371 87.1563L253.741 86.1203L247.149 83.7665L249.503 77.1741L248.561 76.8378L246.207 83.4302L239.615 81.0765L239.245 82.1125L245.837 84.4663L243.483 91.0587L244.425 91.3949Z" fill="#36845E" fill-opacity="0.1"/>
<path d="M197.337 74.5822L199.69 67.9898L206.283 70.3436L206.653 69.3076L200.06 66.9538L202.414 60.3614L201.472 60.0252L199.119 66.6176L192.526 64.2638L192.156 65.2998L198.749 67.6536L196.395 74.246L197.337 74.5822Z" fill="#36845E" fill-opacity="0.1"/>
<path d="M150.248 57.7696L152.602 51.1772L159.194 53.5309L159.564 52.4949L152.972 50.1411L155.326 43.5487L154.384 43.2125L152.03 49.8049L145.438 47.4511L145.068 48.4871L151.66 50.8409L149.306 57.4333L150.248 57.7696Z" fill="#36845E" fill-opacity="0.1"/>
<path d="M103.159 40.9569L105.513 34.3645L112.106 36.7183L112.476 35.6822L105.883 33.3284L108.237 26.736L107.295 26.3998L104.941 32.9922L98.349 30.6384L97.9791 31.6744L104.571 34.0282L102.218 40.6206L103.159 40.9569Z" fill="#36845E" fill-opacity="0.1"/>
<path d="M56.0709 24.1442L58.4246 17.5518L65.017 19.9056L65.3869 18.8695L58.7945 16.5158L61.1483 9.92335L60.2066 9.5871L57.8528 16.1795L51.2604 13.8257L50.8905 14.8618L57.4829 17.2155L55.1291 23.8079L56.0709 24.1442Z" fill="#36845E" fill-opacity="0.1"/>
<path d="M8.98236 7.33151L11.3361 0.739112L17.9285 3.09289L18.2984 2.05685L11.706 -0.296929L14.0598 -6.88933L13.1181 -7.22558L10.7643 -0.633182L4.17187 -2.98696L3.80196 -1.95092L10.3944 0.402858L8.04059 6.99526L8.98236 7.33151Z" fill="#36845E" fill-opacity="0.1"/>
<path d="M355.415 77.9317L357.769 71.3393L364.361 73.6931L364.731 72.6571L358.139 70.3033L360.492 63.7109L359.551 63.3746L357.197 69.967L350.605 67.6133L350.235 68.6493L356.827 71.0031L354.473 77.5955L355.415 77.9317Z" fill="#36845E" fill-opacity="0.1"/>
<path d="M308.326 61.119L310.68 54.5266L317.273 56.8804L317.643 55.8444L311.05 53.4906L313.404 46.8982L312.462 46.562L310.108 53.1544L303.516 50.8006L303.146 51.8366L309.738 54.1904L307.385 60.7828L308.326 61.119Z" fill="#36845E" fill-opacity="0.1"/>
<path d="M261.238 44.3064L263.592 37.714L270.184 40.0677L270.554 39.0317L263.962 36.6779L266.315 30.0855L265.374 29.7493L263.02 36.3417L256.427 33.9879L256.057 35.0239L262.65 37.3777L260.296 43.9701L261.238 44.3064Z" fill="#36845E" fill-opacity="0.1"/>
<path d="M214.149 27.4937L216.503 20.9013L223.096 23.2551L223.465 22.219L216.873 19.8652L219.227 13.2728L218.285 12.9366L215.931 19.529L209.339 17.1752L208.969 18.2113L215.561 20.565L213.208 27.1574L214.149 27.4937Z" fill="#36845E" fill-opacity="0.1"/>
<path d="M167.061 10.681L169.415 4.0886L176.007 6.44238L176.377 5.40633L169.784 3.05256L172.138 -3.53984L171.196 -3.8761L168.843 2.71631L162.25 0.362529L161.88 1.39857L168.473 3.75235L166.119 10.3447L167.061 10.681Z" fill="#36845E" fill-opacity="0.1"/>
<path d="M372.228 30.8432L374.581 24.2508L381.174 26.6045L381.544 25.5685L374.951 23.2147L377.305 16.6223L376.363 16.2861L374.01 22.8785L367.417 20.5247L367.047 21.5607L373.64 23.9145L371.286 30.5069L372.228 30.8432Z" fill="#36845E" fill-opacity="0.1"/>
<path d="M325.139 14.0305L327.493 7.43809L334.085 9.79186L334.455 8.75582L327.863 6.40205L330.217 -0.190354L329.275 -0.526608L326.921 6.06579L320.329 3.71202L319.959 4.74806L326.551 7.10183L324.197 13.6942L325.139 14.0305Z" fill="#36845E" fill-opacity="0.1"/>
</svg>
